<svg xmlns="http://www.w3.org/2000/svg" xmlns:xlink="http://www.w3.org/1999/xlink" width="924.19" height="907.111" viewBox="0 0 924.19 907.111"><defs><style>.a{fill:#403ff2;}.b{filter:url(#a);}</style><filter id="a" x="0" y="0" width="924.19" height="907.111" filterUnits="userSpaceOnUse"><feOffset dy="3" input="SourceAlpha"/><feGaussianBlur stdDeviation="3" result="b"/><feFlood flood-opacity="0.133"/><feComposite operator="in" in2="b"/><feComposite in="SourceGraphic"/></filter></defs><g class="b" transform="matrix(1, 0, 0, 1, 0, 0)"><path class="a" d="M608.3,183.512c87.218.233,163.155,46.93,238.593,90.7,84.644,49.116,211.653,80.929,224.405,177.957,13.283,101.069-134.691,149.962-168.677,246.068-32.4,91.607,41.433,207.414-18.684,283.751-61.3,77.836-176.659,94.361-275.637,89.981-96.378-4.265-180.786-56.407-258.465-113.616-77.2-56.857-178.864-116.31-183.746-212.063-4.957-97.219,122.628-145.585,160.947-235.071,32.538-75.986-12.089-175.556,41.746-238.281,56.9-66.292,152.158-89.662,239.519-89.429" transform="translate(-156.95 -177.51)"/></g></svg>